<svg width="87" height="73" viewBox="0 0 87 73" fill="none" xmlns="http://www.w3.org/2000/svg">
<path d="M70.2 38.8421V34.4211H61.8V38.8421H70.2ZM49.2 43.2632V67.5789H82.8V43.2632H49.2ZM82.8 38.8421C85.131 38.8421 87 40.8095 87 43.2632V67.5789C87 70.0326 85.131 72 82.8 72H49.2C46.869 72 45 70.0326 45 67.5789L45.021 43.2632C45.021 40.8095 46.869 38.8421 49.2 38.8421H57.6V34.4211C57.6 31.9674 59.469 30 61.8 30H70.2C72.531 30 74.4 31.9674 74.4 34.4211V38.8421H82.8Z" fill="#3D3D3D"/>
<path fill-rule="evenodd" clip-rule="evenodd" d="M52.64 20.6502C52.64 32.0553 43.9118 41.3004 33.1442 41.3004C22.3767 41.3004 13.6484 32.0553 13.6484 20.6502C13.6484 9.24509 22.3767 0 33.1442 0C43.9118 0 52.64 9.24509 52.64 20.6502ZM48.7409 20.6502C48.7409 25.0316 47.0977 29.2336 44.1727 32.3317C41.2478 35.4298 37.2807 37.1703 33.1442 37.1703C29.0077 37.1703 25.0407 35.4298 22.1157 32.3317C19.1908 29.2336 17.5476 25.0316 17.5476 20.6502C17.5476 16.2688 19.1908 12.0668 22.1157 8.96868C25.0407 5.87055 29.0077 4.13004 33.1442 4.13004C37.2807 4.13004 41.2478 5.87055 44.1727 8.96868C47.0977 12.0668 48.7409 16.2688 48.7409 20.6502Z" fill="#3D3D3D"/>
<path d="M45.8151 45.429C45.6077 45.379 45.3904 45.4054 45.1991 45.5037C45.0077 45.6021 44.8537 45.7665 44.7624 45.97L37.042 69.3253V61.9491L35.921 53.6457C36.2789 53.5658 36.6083 53.3809 36.8717 53.1122C37.1351 52.8434 37.3218 52.5016 37.4105 52.1258L38.3853 47.9958C38.4572 47.6915 38.4628 47.3738 38.4016 47.0669C38.3403 46.7599 38.2138 46.4718 38.0317 46.2244C37.8496 45.977 37.6167 45.7768 37.3506 45.6389C37.0845 45.5011 36.7923 45.4293 36.4961 45.429H29.7935C29.4973 45.4291 29.2051 45.5006 28.939 45.6382C28.6728 45.7758 28.4398 45.9757 28.2575 46.2229C28.0752 46.4702 27.9485 46.7581 27.887 47.0649C27.8255 47.3717 27.8307 47.6894 27.9024 47.9937L28.8772 52.1238C28.9656 52.4999 29.1521 52.8422 29.4155 53.1113C29.6789 53.3805 30.0085 53.5656 30.3667 53.6457L29.2437 61.9491V67.5163L21.5234 45.97C21.4321 45.7665 21.278 45.6021 21.0867 45.5037C20.8953 45.4054 20.678 45.379 20.4706 45.429C19.7707 45.6086 19.0182 45.7966 18.2325 45.9907C13.8225 47.0851 8.3715 48.4356 5.47442 50.4511C2.03731 52.8403 0 55.657 0 58.8516V72.2741H66.2857V58.8516C66.2857 55.657 64.2484 52.8424 60.8113 50.4511C57.9142 48.4356 52.4632 47.0851 48.0532 45.9907C47.2676 45.7966 46.5131 45.6107 45.8151 45.429Z" fill="#3D3D3D"/>
</svg>
