<svg width="29" height="30" viewBox="0 0 29 30" fill="none" xmlns="http://www.w3.org/2000/svg">
<path fill-rule="evenodd" clip-rule="evenodd" d="M8.81995 0.088C10.384 0.016 10.8826 0 14.8666 0C18.8506 0 19.3493 0.0173333 20.912 0.088C22.4746 0.158667 23.5413 0.408 24.4746 0.769333C25.4519 1.13867 26.3386 1.716 27.0719 2.46267C27.8186 3.19467 28.3946 4.08 28.7626 5.05867C29.1253 5.992 29.3733 7.05867 29.4453 8.61867C29.5173 10.1853 29.5333 10.684 29.5333 14.6667C29.5333 18.6507 29.5159 19.1493 29.4453 20.7133C29.3746 22.2733 29.1253 23.34 28.7626 24.2733C28.3946 25.2521 27.8177 26.1389 27.0719 26.872C26.3386 27.6187 25.4519 28.1947 24.4746 28.5627C23.5413 28.9253 22.4746 29.1733 20.9146 29.2453C19.3493 29.3173 18.8506 29.3333 14.8666 29.3333C10.8826 29.3333 10.384 29.316 8.81995 29.2453C7.25995 29.1747 6.19328 28.9253 5.25995 28.5627C4.28118 28.1946 3.39438 27.6177 2.66128 26.872C1.91512 26.1396 1.3377 25.2532 0.969284 24.2747C0.607951 23.3413 0.359951 22.2747 0.287951 20.7147C0.215951 19.148 0.199951 18.6493 0.199951 14.6667C0.199951 10.6827 0.217284 10.184 0.287951 8.62133C0.358618 7.05867 0.607951 5.992 0.969284 5.05867C1.33825 4.08011 1.91611 3.19375 2.66262 2.46133C3.39467 1.71533 4.28058 1.13792 5.25862 0.769333C6.19195 0.408 7.25862 0.16 8.81862 0.088H8.81995ZM20.7933 2.728C19.2466 2.65733 18.7826 2.64267 14.8666 2.64267C10.9506 2.64267 10.4866 2.65733 8.93995 2.728C7.50928 2.79333 6.73328 3.032 6.21595 3.23333C5.53195 3.5 5.04262 3.816 4.52928 4.32933C4.04268 4.80274 3.66819 5.37904 3.43328 6.016C3.23195 6.53333 2.99328 7.30933 2.92795 8.74C2.85728 10.2867 2.84262 10.7507 2.84262 14.6667C2.84262 18.5827 2.85728 19.0467 2.92795 20.5933C2.99328 22.024 3.23195 22.8 3.43328 23.3173C3.66795 23.9533 4.04262 24.5307 4.52928 25.004C5.00262 25.4907 5.57995 25.8653 6.21595 26.1C6.73328 26.3013 7.50928 26.54 8.93995 26.6053C10.4866 26.676 10.9493 26.6907 14.8666 26.6907C18.784 26.6907 19.2466 26.676 20.7933 26.6053C22.2239 26.54 23 26.3013 23.5173 26.1C24.2013 25.8333 24.6906 25.5173 25.204 25.004C25.6906 24.5307 26.0653 23.9533 26.3 23.3173C26.5013 22.8 26.74 22.024 26.8053 20.5933C26.8759 19.0467 26.8906 18.5827 26.8906 14.6667C26.8906 10.7507 26.8759 10.2867 26.8053 8.74C26.74 7.30933 26.5013 6.53333 26.3 6.016C26.0333 5.332 25.7173 4.84267 25.204 4.32933C24.7305 3.84276 24.1542 3.46828 23.5173 3.23333C23 3.032 22.2239 2.79333 20.7933 2.728ZM12.9933 19.188C14.0395 19.6235 15.2045 19.6823 16.2892 19.3543C17.3739 19.0263 18.3111 18.3319 18.9408 17.3897C19.5704 16.4474 19.8534 15.3158 19.7413 14.1881C19.6293 13.0605 19.1293 12.0066 18.3266 11.2067C17.8149 10.6953 17.1962 10.3038 16.5151 10.0602C15.8339 9.81664 15.1072 9.72715 14.3873 9.79815C13.6674 9.86916 12.9722 10.0989 12.3517 10.4708C11.7312 10.8428 11.2009 11.3477 10.799 11.9491C10.3971 12.5506 10.1335 13.2337 10.0273 13.9493C9.92107 14.6648 9.97482 15.3951 10.1847 16.0874C10.3945 16.7797 10.7553 17.4168 11.2409 17.953C11.7266 18.4891 12.3251 18.9109 12.9933 19.188ZM9.53595 9.336C10.236 8.63597 11.067 8.08067 11.9817 7.70182C12.8963 7.32296 13.8766 7.12797 14.8666 7.12797C15.8566 7.12797 16.8369 7.32296 17.7516 7.70181C18.6662 8.08067 19.4972 8.63597 20.1973 9.336C20.8973 10.036 21.4526 10.8671 21.8315 11.7817C22.2103 12.6964 22.4053 13.6767 22.4053 14.6667C22.4053 15.6567 22.2103 16.637 21.8315 17.5516C21.4526 18.4662 20.8973 19.2973 20.1973 19.9973C18.7835 21.4111 16.866 22.2054 14.8666 22.2054C12.8672 22.2054 10.9497 21.4111 9.53595 19.9973C8.12217 18.5836 7.32792 16.6661 7.32792 14.6667C7.32792 12.6673 8.12217 10.7498 9.53595 9.336ZM24.0773 8.25067C24.2508 8.08703 24.3896 7.89024 24.4857 7.67197C24.5817 7.45369 24.633 7.21836 24.6365 6.97991C24.64 6.74146 24.5956 6.50473 24.5059 6.28375C24.4163 6.06276 24.2832 5.86201 24.1146 5.69339C23.9459 5.52476 23.7452 5.39168 23.5242 5.30202C23.3032 5.21237 23.0665 5.16797 22.828 5.17144C22.5896 5.17492 22.3543 5.22621 22.136 5.32226C21.9177 5.41832 21.7209 5.55719 21.5573 5.73067C21.239 6.06804 21.0648 6.51616 21.0716 6.97991C21.0783 7.44365 21.2655 7.88651 21.5935 8.21446C21.9214 8.54241 22.3643 8.72964 22.828 8.7364C23.2918 8.74316 23.7399 8.56892 24.0773 8.25067Z" fill="#FFFEFE"/>
</svg>
