<svg width="71" height="71" viewBox="0 0 71 71" fill="none" xmlns="http://www.w3.org/2000/svg">
<path d="M10.9881 0.0683594C8.07387 0.0683594 5.27901 1.33541 3.21834 3.59077C1.15767 5.84613 0 8.90505 0 12.0946V39.8475C0 43.0371 1.15767 46.096 3.21834 48.3513C5.27901 50.6067 8.07387 51.8737 10.9881 51.8737H30.4286V46.3232H10.9881C9.4189 46.3232 7.91397 45.6409 6.80438 44.4265C5.69479 43.2121 5.07143 41.565 5.07143 39.8475V18.5703H62.5476V28.0063C64.0682 28.8555 65.3458 30.1466 66.2403 31.7379C67.1349 33.3292 67.6119 35.1594 67.619 37.0278V12.0946C67.619 10.5153 67.3348 8.95146 66.7826 7.49236C66.2304 6.03327 65.4211 4.70751 64.4007 3.59077C63.3804 2.47403 62.1691 1.58818 60.8359 0.983804C59.5028 0.379428 58.0739 0.0683594 56.631 0.0683594H10.9881ZM62.5476 13.0197H5.07143V12.0946C5.07143 8.52004 7.7221 5.61894 10.9881 5.61894H56.631C59.897 5.61894 62.5476 8.52004 62.5476 12.0946V13.0197ZM40.5714 40.7726H38.881C37.5359 40.7726 36.246 41.3574 35.2949 42.3983C34.3438 43.4393 33.8095 44.8511 33.8095 46.3232V51.8737H42.2619V50.9487C42.2619 50.2126 42.5291 49.5067 43.0046 48.9862C43.4801 48.4658 44.1251 48.1734 44.7976 48.1734C45.4701 48.1734 46.1151 48.4658 46.5906 48.9862C47.0662 49.5067 47.3333 50.2126 47.3333 50.9487V51.8737H57.4762V50.9487C57.4762 50.2126 57.7433 49.5067 58.2189 48.9862C58.6944 48.4658 59.3394 48.1734 60.0119 48.1734C60.6844 48.1734 61.3294 48.4658 61.8049 48.9862C62.2805 49.5067 62.5476 50.2126 62.5476 50.9487V51.8737H71V46.3232C71 44.8511 70.4657 43.4393 69.5146 42.3983C68.5635 41.3574 67.2736 40.7726 65.9286 40.7726H64.2381V37.0722C64.2381 35.3548 63.6147 33.7076 62.5051 32.4932C61.3955 31.2788 59.8906 30.5965 58.3214 30.5965H46.4881C44.9189 30.5965 43.414 31.2788 42.3044 32.4932C41.1948 33.7076 40.5714 35.3548 40.5714 37.0722V40.7726ZM45.6429 37.0722C45.6429 36.8269 45.7319 36.5916 45.8904 36.4181C46.0489 36.2446 46.2639 36.1471 46.4881 36.1471H58.3214C58.5456 36.1471 58.7606 36.2446 58.9191 36.4181C59.0776 36.5916 59.1667 36.8269 59.1667 37.0722V40.7726H45.6429V37.0722ZM33.8095 64.8251V57.4243H42.2619V60.1996C42.2619 60.9357 42.5291 61.6416 43.0046 62.162C43.4801 62.6825 44.1251 62.9749 44.7976 62.9749C45.4701 62.9749 46.1151 62.6825 46.5906 62.162C47.0662 61.6416 47.3333 60.9357 47.3333 60.1996V57.4243H57.4762V60.1996C57.4762 60.9357 57.7433 61.6416 58.2189 62.162C58.6944 62.6825 59.3394 62.9749 60.0119 62.9749C60.6844 62.9749 61.3294 62.6825 61.8049 62.162C62.2805 61.6416 62.5476 60.9357 62.5476 60.1996V57.4243H71V64.8251C71 66.2972 70.4657 67.709 69.5146 68.7499C68.5635 69.7909 67.2736 70.3757 65.9286 70.3757H38.881C37.5359 70.3757 36.246 69.7909 35.2949 68.7499C34.3438 67.709 33.8095 66.2972 33.8095 64.8251Z" fill="#3D3D3D"/>
</svg>
