<svg width="71" height="72" viewBox="0 0 71 72" fill="none" xmlns="http://www.w3.org/2000/svg">
<path d="M30 0.375977H48V7.37598H30V0.375977Z" fill="#3D3D3D"/>
<path d="M64.3395 23.2924L69.1878 18.5147L64.4072 13.8037L59.5623 18.578C54.2539 14.3861 47.6718 12.0704 40.8696 12.0016C34.0674 11.9327 27.4385 14.1147 22.0438 18.1982L26.8448 22.9958C30.8559 20.1884 35.6515 18.6753 40.5714 18.6647L40.6052 18.668V41.9231L57.3511 58.4416C54.0452 61.7146 49.8278 63.947 45.2332 64.8558C40.6386 65.7646 35.8736 65.309 31.542 63.5468C27.2104 61.7845 23.5072 58.7949 20.9014 54.9566C18.2956 51.1184 16.9047 46.6044 16.9048 41.9864H27.0476L13.5238 28.6597L0 41.9864H10.1429C10.1383 46.7779 11.299 51.5008 13.5277 55.7592C15.7565 60.0177 18.9885 63.6879 22.9528 66.4622C26.9172 69.2366 31.4985 71.0343 36.313 71.7049C41.1275 72.3755 46.035 71.8993 50.6243 70.3163C55.2136 68.7333 59.3512 66.0896 62.6903 62.6066C66.0294 59.1236 68.4729 54.9028 69.8161 50.2977C71.1592 45.6926 71.3629 40.8374 70.41 36.1388C69.4572 31.4402 67.3755 27.0351 64.3395 23.2924Z" fill="#3D3D3D"/>
</svg>
