<svg width="30" height="30" viewBox="0 0 30 30" fill="none" xmlns="http://www.w3.org/2000/svg">
<path d="M4.5 3H10.5L13.5 10.5L9.75 12.75C11.3564 16.0073 13.9927 18.6436 17.25 20.25L19.5 16.5L27 19.5V25.5C27 26.2956 26.6839 27.0587 26.1213 27.6213C25.5587 28.1839 24.7956 28.5 24 28.5C18.1489 28.1444 12.6302 25.6597 8.48524 21.5148C4.34026 17.3698 1.85557 11.8511 1.5 6C1.5 5.20435 1.81607 4.44129 2.37868 3.87868C2.94129 3.31607 3.70435 3 4.5 3" stroke="white" stroke-width="2" stroke-linecap="round" stroke-linejoin="round"/>
<path d="M19.5 7.5C20.2956 7.5 21.0587 7.81607 21.6213 8.37868C22.1839 8.94129 22.5 9.70435 22.5 10.5" stroke="white" stroke-width="2" stroke-linecap="round" stroke-linejoin="round"/>
<path d="M19.5 1.5C21.8869 1.5 24.1761 2.44821 25.864 4.13604C27.5518 5.82387 28.5 8.11305 28.5 10.5" stroke="white" stroke-width="2" stroke-linecap="round" stroke-linejoin="round"/>
</svg>
