<svg width="30" height="30" viewBox="0 0 30 30" fill="none" xmlns="http://www.w3.org/2000/svg">
<path d="M19.992 17.0399C19.6024 16.6183 19.1647 16.2438 18.688 15.9239C20.6103 14.4379 21.9576 12.331 22.5 9.96258C22.5408 9.7912 22.5472 9.61343 22.5188 9.43956C22.4905 9.26569 22.4279 9.09917 22.3348 8.94961C22.2417 8.80005 22.1199 8.67042 21.9764 8.56821C21.833 8.466 21.6706 8.39323 21.4989 8.35412C21.3271 8.31501 21.1493 8.31033 20.9757 8.34034C20.8021 8.37036 20.6362 8.43447 20.4875 8.52899C20.3389 8.6235 20.2104 8.74654 20.1096 8.89099C20.0087 9.03545 19.9375 9.19845 19.9 9.37058C19.6477 10.4787 19.1567 11.5183 18.4612 12.4171C17.7658 13.3159 16.8826 14.0522 15.8734 14.5746V9.66925C15.865 9.57131 15.8453 9.47467 15.8147 9.38125C15.8057 9.30406 15.7901 9.22778 15.768 9.15325C15.7112 9.03146 15.6361 8.91906 15.5454 8.81992C15.5214 8.79325 15.5094 8.75592 15.484 8.72925C15.3864 8.63911 15.2758 8.56406 15.156 8.50659C15.1214 8.48792 15.096 8.45725 15.06 8.44258C14.9581 8.40845 14.8525 8.38652 14.7454 8.37725C14.6791 8.35794 14.6113 8.34412 14.5427 8.33592L13.6707 8.33325H13.6667C13.3543 8.33104 13.0512 8.43913 12.8107 8.63849C12.5702 8.83784 12.4077 9.11567 12.352 9.42304C12.2962 9.73041 12.3507 10.0476 12.5058 10.3187C12.661 10.5899 12.9068 10.7976 13.2 10.9053V17.4253C11.0871 15.2321 9.68792 12.4504 9.18671 9.44658C9.12765 9.09791 8.93251 8.78698 8.6442 8.58219C8.3559 8.3774 7.99804 8.29553 7.64937 8.35458C7.3007 8.41364 6.98977 8.60878 6.78498 8.89709C6.58019 9.1854 6.49832 9.54325 6.55737 9.89192C7.33649 14.5356 9.92587 18.6805 13.7574 21.4172C13.8121 21.4498 13.8692 21.4783 13.928 21.5026C13.9744 21.5296 14.0225 21.5537 14.072 21.5746C14.2206 21.6341 14.3787 21.6661 14.5387 21.6693C14.735 21.6668 14.9282 21.6203 15.104 21.5333C15.1174 21.5266 15.132 21.5306 15.1454 21.5239C15.2632 21.4622 15.3711 21.3831 15.4654 21.2892C15.4854 21.2706 15.4974 21.2493 15.516 21.2293C15.6021 21.1348 15.674 21.0284 15.7294 20.9132C15.7477 20.8754 15.7642 20.8367 15.7787 20.7973C15.8373 20.6503 15.8689 20.4941 15.872 20.3359V17.5013C16.6988 17.7436 17.4438 18.2069 18.0267 18.8412L20.2227 21.2372C20.4618 21.4979 20.7945 21.6529 21.1479 21.6681C21.5012 21.6834 21.8461 21.5576 22.1067 21.3186C22.3673 21.0795 22.5223 20.7467 22.5376 20.3934C22.5528 20.0401 22.4271 19.6952 22.188 19.4346L19.992 17.0399ZM19.0974 0.333252H10.916C2.70671 0.333252 0.333374 2.70392 0.333374 10.9026V19.0839C0.333374 27.2932 2.70404 29.6666 10.9027 29.6666H19.084C27.2934 29.6666 29.6667 27.2959 29.6667 19.0972V10.9159C29.6667 2.70659 27.296 0.333252 19.0974 0.333252ZM27 19.0972C27 25.8173 25.816 26.9999 19.0827 26.9999H10.904C4.18271 26.9999 3.00004 25.8159 3.00004 19.0826V10.9039C3.00004 4.18259 4.18404 2.99992 10.9174 2.99992H19.0974C25.8174 2.99992 27 4.18392 27 10.9173V19.0972Z" fill="#FFFEFE"/>
</svg>
